<mxfile host="app.diagrams.net" modified="2024-05-31T08:42:46.108Z" agent="Mozilla/5.0 (X11; Linux x86_64; rv:125.0) Gecko/20100101 Firefox/125.0" etag="LiE2SlbwfBu80wf9TAbN" version="24.4.10" type="github">
  <diagram id="C5RBs43oDa-KdzZeNtuy" name="Page-1">
    <mxGraphModel dx="1420" dy="734" grid="1" gridSize="10" guides="1" tooltips="1" connect="1" arrows="1" fold="1" page="1" pageScale="1" pageWidth="827" pageHeight="1169" math="0" shadow="0">
      <root>
        <mxCell id="WIyWlLk6GJQsqaUBKTNV-0" />
        <mxCell id="WIyWlLk6GJQsqaUBKTNV-1" parent="WIyWlLk6GJQsqaUBKTNV-0" />
        <mxCell id="JyopJMTUg4JKFxNpWURY-8" value="MarkerDict" style="swimlane;fontStyle=1;align=center;verticalAlign=top;childLayout=stackLayout;horizontal=1;startSize=26;horizontalStack=0;resizeParent=1;resizeParentMax=0;resizeLast=0;collapsible=1;marginBottom=0;whiteSpace=wrap;html=1;" parent="WIyWlLk6GJQsqaUBKTNV-1" vertex="1">
          <mxGeometry x="330" y="340" width="230" height="210" as="geometry" />
        </mxCell>
        <mxCell id="JyopJMTUg4JKFxNpWURY-9" value="- marker_map: std::map&amp;lt;int, states&amp;gt;" style="text;strokeColor=none;fillColor=none;align=left;verticalAlign=top;spacingLeft=4;spacingRight=4;overflow=hidden;rotatable=0;points=[[0,0.5],[1,0.5]];portConstraint=eastwest;whiteSpace=wrap;html=1;" parent="JyopJMTUg4JKFxNpWURY-8" vertex="1">
          <mxGeometry y="26" width="230" height="26" as="geometry" />
        </mxCell>
        <mxCell id="JyopJMTUg4JKFxNpWURY-10" value="" style="line;strokeWidth=1;fillColor=none;align=left;verticalAlign=middle;spacingTop=-1;spacingLeft=3;spacingRight=3;rotatable=0;labelPosition=right;points=[];portConstraint=eastwest;strokeColor=inherit;" parent="JyopJMTUg4JKFxNpWURY-8" vertex="1">
          <mxGeometry y="52" width="230" height="8" as="geometry" />
        </mxCell>
        <mxCell id="JyopJMTUg4JKFxNpWURY-11" value="&lt;div&gt;+ MarkerDict()&lt;br&gt;&lt;/div&gt;&lt;div&gt;+ MarkerDict(std::map&amp;lt;int, States&amp;gt;)&lt;/div&gt;&lt;div&gt;+ MarkerDict)&lt;/div&gt;&lt;div&gt;+ add_marker(int id, States) : void&lt;/div&gt;&lt;div&gt;+ marker_translate(int id) : States&lt;/div&gt;&lt;div&gt;+ return_dict() : std::map&amp;lt;int, States&amp;gt; &lt;br&gt;&lt;/div&gt;&lt;div&gt;+ print_dict() : void&lt;/div&gt;&lt;div&gt;+ save_dict() : void&lt;br&gt;&lt;/div&gt;" style="text;strokeColor=none;fillColor=none;align=left;verticalAlign=top;spacingLeft=4;spacingRight=4;overflow=hidden;rotatable=0;points=[[0,0.5],[1,0.5]];portConstraint=eastwest;whiteSpace=wrap;html=1;" parent="JyopJMTUg4JKFxNpWURY-8" vertex="1">
          <mxGeometry y="60" width="230" height="150" as="geometry" />
        </mxCell>
        <mxCell id="JyopJMTUg4JKFxNpWURY-12" value="&lt;div&gt;&amp;lt;&amp;lt;enumeration&amp;gt;&amp;gt;&lt;/div&gt;&lt;div&gt;States&lt;br&gt;&lt;/div&gt;" style="swimlane;fontStyle=0;childLayout=stackLayout;horizontal=1;startSize=30;fillColor=none;horizontalStack=0;resizeParent=1;resizeParentMax=0;resizeLast=0;collapsible=1;marginBottom=0;whiteSpace=wrap;html=1;" parent="WIyWlLk6GJQsqaUBKTNV-1" vertex="1">
          <mxGeometry x="110" y="350" width="140" height="114" as="geometry" />
        </mxCell>
        <mxCell id="JyopJMTUg4JKFxNpWURY-13" value="&lt;div&gt;STOP&lt;/div&gt;&lt;div&gt;FORWARD&lt;/div&gt;&lt;div&gt;BACKWARD&lt;/div&gt;&lt;div&gt;TURN_L&lt;/div&gt;&lt;div&gt;TURN_R&lt;br&gt;&lt;/div&gt;" style="text;strokeColor=none;fillColor=none;align=left;verticalAlign=top;spacingLeft=4;spacingRight=4;overflow=hidden;rotatable=0;points=[[0,0.5],[1,0.5]];portConstraint=eastwest;whiteSpace=wrap;html=1;" parent="JyopJMTUg4JKFxNpWURY-12" vertex="1">
          <mxGeometry y="30" width="140" height="84" as="geometry" />
        </mxCell>
        <mxCell id="JyopJMTUg4JKFxNpWURY-16" value="" style="edgeStyle=orthogonalEdgeStyle;rounded=0;orthogonalLoop=1;jettySize=auto;html=1;" parent="WIyWlLk6GJQsqaUBKTNV-1" source="JyopJMTUg4JKFxNpWURY-13" target="JyopJMTUg4JKFxNpWURY-11" edge="1">
          <mxGeometry relative="1" as="geometry" />
        </mxCell>
      </root>
    </mxGraphModel>
  </diagram>
</mxfile>
